<svg width="101" height="22" viewBox="0 0 101 22" fill="none" xmlns="http://www.w3.org/2000/svg">
<path d="M23.3306 13.4151L22.1733 13.3118C21.2648 13.2382 20.9133 12.8687 20.9133 12.2481C20.9133 11.5095 21.47 11.0512 22.5249 11.0512C23.2722 11.0512 23.9314 11.2287 24.4447 11.6276L25.1334 10.9331C24.4881 10.4013 23.5655 10.1503 22.5401 10.1503C21.0017 10.1503 19.8881 10.9474 19.8881 12.2777C19.8881 13.4744 20.6355 14.1096 22.0419 14.2279L23.2286 14.3312C24.0637 14.4052 24.43 14.7597 24.43 15.395C24.43 16.252 23.6975 16.6802 22.5103 16.6802C21.6164 16.6802 20.8399 16.4438 20.2678 15.838L19.5645 16.5472C20.3558 17.3154 21.3081 17.5962 22.5241 17.5962C24.2676 17.5962 25.4545 16.7828 25.4545 15.3802C25.4545 14.0205 24.5899 13.5333 23.3298 13.4148L23.3306 13.4151ZM32.3508 10.15C31.1943 10.15 30.4657 10.3798 29.8274 11.1949C29.8187 11.2061 30.5195 11.8931 30.5195 11.8931C30.9442 11.2874 31.413 11.066 32.336 11.066C33.6547 11.066 34.1822 11.5978 34.1822 12.6614V13.3558H32.0143C30.4027 13.3558 29.5238 14.1833 29.5238 15.4544C29.5068 15.9992 29.7013 16.5293 30.0658 16.9318C30.5201 17.4047 31.106 17.5967 32.1022 17.5967C33.0692 17.5967 33.5968 17.4047 34.1833 16.8135V17.5079H35.2382V12.5729C35.2382 10.9922 34.2864 10.1503 32.352 10.1503L32.3508 10.15ZM34.1828 14.9375C34.1828 15.5435 34.0656 15.9572 33.8165 16.1934C33.3623 16.6367 32.8203 16.6815 32.205 16.6815C31.0622 16.6815 30.5491 16.2824 30.5491 15.4402C30.5491 14.598 31.0767 14.155 32.1611 14.155H34.1828V14.9375ZM39.3693 11.0965C40.0579 11.0965 40.4825 11.3032 41.0248 11.9089C41.0248 11.9089 41.7311 11.2167 41.7253 11.2105C40.9856 10.4125 40.3578 10.151 39.37 10.151C37.5531 10.151 36.1757 11.3919 36.1757 13.8739C36.1757 16.3559 37.5528 17.5972 39.37 17.5972C40.3662 17.5972 40.9961 17.331 41.7434 16.5186L41.0255 15.8241C40.4834 16.4299 40.0585 16.6515 39.37 16.6515C38.7103 16.6781 38.082 16.3668 37.6998 15.8241C37.3627 15.3514 37.2309 14.79 37.2309 13.8739C37.2309 12.9579 37.3627 12.3964 37.6998 11.9237C38.082 11.3809 38.7103 11.0697 39.37 11.0965H39.3693ZM48.4042 10.2287H47.0891L43.8206 13.4368L43.8256 6.98828H42.7704V17.5079H43.8255L43.8205 14.8547L45.0999 13.5599L47.5179 17.5079H48.8217L45.8308 12.8227L48.4042 10.2287ZM53.2784 10.0498C52.1975 10.0498 51.4672 10.4745 51.0177 10.9559C50.3577 11.6497 50.1893 12.4851 50.1893 13.8162C50.1893 15.1612 50.3577 15.9961 51.0177 16.6906C51.4672 17.1719 52.1972 17.5969 53.2784 17.5969C54.3596 17.5969 55.1039 17.1719 55.5531 16.6906C56.213 15.9967 56.3816 15.1614 56.3816 13.8162C56.3816 12.4853 56.213 11.6497 55.5531 10.9559C55.1039 10.4745 54.3592 10.0498 53.2784 10.0498ZM54.135 15.6144C53.9062 15.8373 53.5962 15.9551 53.2784 15.9398C52.9648 15.9551 52.6592 15.8371 52.4359 15.6144C52.0566 15.2321 52.0147 14.5809 52.0147 13.8162C52.0147 13.0514 52.0566 12.4145 52.4359 12.0322C52.6591 11.8095 52.9647 11.6915 53.2784 11.7068C53.5962 11.6915 53.9062 11.8092 54.135 12.0322C54.514 12.4145 54.5562 13.0516 54.5562 13.8162C54.5562 14.5808 54.514 15.2315 54.135 15.6144ZM61.2422 10.1344L59.768 14.6935L58.2796 10.134H56.3557L59.0519 17.5111H60.484L63.1657 10.134L61.2422 10.1344ZM66.2712 10.0494C64.3758 10.0494 63.0839 11.4086 63.0839 13.8158C63.0839 16.8036 64.7409 17.5965 66.4679 17.5965C67.7879 17.5965 68.5042 17.1858 69.2482 16.4352L68.1391 15.3452C67.6756 15.8126 67.2823 16.039 66.4819 16.039C65.4569 16.039 64.8813 15.3452 64.8813 14.396H69.4587V13.5752C69.4587 11.5503 68.3073 10.0494 66.2712 10.0494ZM64.8813 13.1361C64.8839 12.8631 64.9413 12.5934 65.0498 12.3432C65.2799 11.875 65.7533 11.5788 66.2715 11.5788C66.7897 11.5788 67.2631 11.875 67.4931 12.3432C67.6013 12.5935 67.6586 12.8631 67.6615 13.1361H64.8813ZM72.1514 10.8424V10.1344H70.368V17.5114H72.1934V13.0655C72.1934 12.1309 72.8112 11.706 73.373 11.706C73.7432 11.6931 74.0985 11.8532 74.3361 12.1397L75.718 10.7433C75.2124 10.2334 74.707 10.0494 73.9909 10.0494C73.2945 10.0411 72.6269 10.329 72.1517 10.8424H72.1514ZM76.2844 9.36537V17.504H78.1097V11.6875H79.4577V10.2858H78.1097V9.47876C78.1097 9.054 78.3205 8.81323 78.755 8.81323H79.4571V7.25589H78.4181C76.9294 7.25589 76.2838 8.31771 76.2838 9.36537H76.2844ZM86.9723 10.0486C85.8914 10.0486 85.1609 10.4734 84.7116 10.9548C84.0518 11.6486 83.8832 12.484 83.8832 13.815C83.8832 15.1601 84.0518 15.9949 84.7116 16.6894C85.1609 17.1708 85.8911 17.5957 86.9723 17.5957C88.0535 17.5957 88.7978 17.1708 89.247 16.6894C89.9068 15.9956 90.0754 15.1602 90.0754 13.815C90.0754 12.4841 89.9068 11.6486 89.247 10.9548C88.7977 10.4734 88.0532 10.0486 86.9723 10.0486ZM87.8289 15.6133C87.6001 15.8362 87.2901 15.9539 86.9723 15.9387C86.6587 15.9539 86.3531 15.8359 86.1298 15.6133C85.7507 15.231 85.7086 14.5798 85.7086 13.815C85.7086 13.0503 85.7507 12.4134 86.1298 12.0311C86.353 11.8084 86.6587 11.6903 86.9723 11.7057C87.2901 11.6903 87.6001 11.8081 87.8289 12.0311C88.2079 12.4134 88.2501 13.0504 88.2501 13.815C88.2501 14.5796 88.2079 15.2303 87.8289 15.6133ZM98.6994 10.1336L97.5201 14.6935L96.0177 10.1344H94.684L93.1953 14.6935L92.016 10.134H90.0783L92.3249 17.5111H93.8273L95.3578 12.8812L96.8883 17.5111H98.3908L100.623 10.134L98.6994 10.1336ZM82.1501 15.2884V7.25589H80.3253V15.4016C80.3253 16.4495 80.9574 17.5114 82.4597 17.5114H83.4986V15.9538H82.7967C82.3333 15.9538 82.1514 15.7273 82.1514 15.2884H82.1501ZM28.3801 11.3823L29.3555 10.3987H27.3583V8.00731H26.3034V15.5577C26.3034 16.6361 26.9187 17.5079 28.1494 17.5079H28.8964V16.5918H28.3398C27.6659 16.5918 27.3583 16.1928 27.3583 15.528V11.3823H28.3801Z" fill="#F9F9F9"/>
<path fill-rule="evenodd" clip-rule="evenodd" d="M14.5072 13.9455H16.2818V21.1034H0.310547V13.9455H2.08513V19.314H14.5072V13.9455Z" fill="#BBBBBB"/>
<path d="M4.01875 13.4132L12.7344 15.2605L13.1008 13.5035L4.38512 11.6555L4.01875 13.4132ZM5.17207 9.20485L13.2458 12.9966L13.9979 11.3683L5.92401 7.57658L5.17207 9.20485ZM7.40611 5.21055L14.2509 10.9582L15.3908 9.57788L8.54604 3.83036L7.40611 5.21055ZM11.8244 0.961975L10.395 2.03404L15.7104 9.2408L17.1397 8.1689L11.8244 0.961975ZM3.85938 17.5242H12.7323V15.7347H3.85938V17.5242Z" fill="#F58025"/>
</svg>
