<svg width="71" height="30" viewBox="0 0 71 30" fill="none" xmlns="http://www.w3.org/2000/svg">
<path d="M69.7622 6.88998C69.7622 6.88998 69.3517 4.01696 68.0931 2.7583C66.5061 1.11657 64.7275 1.10289 63.9203 1.00712C58.0785 0.583008 49.309 0.583008 49.309 0.583008H49.2953C49.2953 0.583008 40.5257 0.583008 34.6839 1.00712C33.8767 1.10289 32.0845 1.11657 30.4975 2.77198C29.2388 4.03064 28.8284 6.90366 28.8284 6.90366C28.8284 6.90366 28.4043 10.2692 28.4043 13.6347V16.7951C28.4043 20.1606 28.8284 23.5262 28.8284 23.5262C28.8284 23.5262 29.2388 26.3992 30.4975 27.6578C32.0982 29.3133 34.1777 29.2722 35.0943 29.4364C38.4325 29.7647 49.2816 29.8605 49.2816 29.8605C49.2816 29.8605 58.0512 29.8468 63.893 29.4227C64.7002 29.3269 66.4924 29.3133 68.0794 27.6578C69.3381 26.3992 69.7485 23.5262 69.7485 23.5262C69.7485 23.5262 70.1726 20.1606 70.1726 16.7951V13.6211C70.1863 10.2692 69.7622 6.88998 69.7622 6.88998Z" fill="#F9F9F9"/>
<path d="M26.2686 24.2512H23.6145V22.7189C22.6021 23.8818 21.7539 24.4564 20.8236 24.4564C20.0164 24.4564 19.4418 24.0597 19.1545 23.3756C18.9903 22.9515 18.8672 22.2811 18.8672 21.3234V10.1187H21.5213V20.612C21.5213 21.2003 21.5213 21.4466 21.5213 21.5971C21.576 21.9938 21.7402 22.1306 22.0959 22.1306C22.6021 22.1306 23.0673 21.6792 23.6145 20.8993V10.1187H26.2686V24.2512Z" fill="#F9F9F9"/>
<path d="M16.9113 14.7429C16.9113 13.238 16.6103 12.1025 16.0768 11.391C15.3654 10.4197 14.2572 10.0366 13.1353 10.0366C11.863 10.0366 10.9053 10.4334 10.1939 11.391C9.64668 12.1025 9.35938 13.2517 9.35938 14.7566V19.7775C9.35938 21.2688 9.61932 22.3085 10.1666 23.02C10.878 23.9913 12.0135 24.4838 13.1353 24.4838C14.2572 24.4838 15.4201 23.9776 16.1315 23.02C16.6651 22.3085 16.9113 21.2688 16.9113 19.7775V14.7429ZM14.2435 20.0512C14.3803 21.4466 13.9562 22.1444 13.1217 22.1444C12.3008 22.1444 11.863 21.4466 11.9998 20.0512V14.4556C11.863 13.0601 12.2871 12.4034 13.1217 12.4034C13.9425 12.4034 14.3803 13.0601 14.2435 14.4556V20.0512Z" fill="#F9F9F9"/>
<path d="M6.41829 16.5622V24.251H3.62735V16.5622C3.62735 16.5622 0.726967 7.13595 0.125 5.37109H3.06643L5.02282 12.7452L6.97922 5.37109H9.92064L6.41829 16.5622Z" fill="#F9F9F9"/>
<path d="M66.6829 17.6706V14.8113C66.6829 13.3201 66.3956 12.2256 65.862 11.5278C65.1506 10.5702 64.1382 10.064 62.8659 10.064C61.5799 10.064 60.5538 10.5702 59.8287 11.5278C59.2951 12.2393 58.9805 13.3885 58.9805 14.8797V19.7775C58.9805 21.2551 59.3362 22.3085 59.8561 23.0063C60.5812 23.9639 61.5936 24.4291 62.9206 24.4291C64.2477 24.4291 65.2874 23.9229 65.9852 22.9242C66.2862 22.4727 66.4914 21.9665 66.5735 21.4193C66.6008 21.173 66.6555 20.5984 66.6555 19.7638V19.3671H64.0014C64.0014 20.3932 64.0014 20.9951 63.9877 21.132C63.8509 21.8023 63.4815 22.158 62.8522 22.158C61.9903 22.158 61.6209 21.515 61.6209 20.2153V17.698H66.6829V17.6706ZM61.6483 14.0452C61.6483 12.7455 62.0177 12.3761 62.8522 12.3761C63.6868 12.3761 64.0288 12.7728 64.0288 14.0588V15.5774H61.6483V14.0452Z" fill="#0F1C32"/>
<path d="M54.9586 10.0367C54.0282 10.0367 53.0979 10.6113 52.2908 11.6237V5.5083H49.7734V24.2514H52.2908V22.8422C53.1253 23.8957 54.0556 24.4429 54.9586 24.4429C55.971 24.4429 56.7097 23.8957 57.0381 22.8559C57.2023 22.2676 57.3117 21.351 57.3117 20.065V14.4694C57.3117 13.1423 57.1475 12.2394 56.9697 11.6785C56.6413 10.625 55.9573 10.0367 54.9586 10.0367ZM54.6576 20.1881C54.6576 21.5836 54.3156 22.1171 53.5905 22.1171C53.1663 22.1171 52.7012 21.9119 52.2771 21.4741V13.0055C52.7012 12.5814 53.1663 12.3625 53.5905 12.3625C54.3156 12.3625 54.6576 12.7729 54.6576 14.1684V20.1881Z" fill="#0F1C32"/>
<path d="M47.6671 24.2511H45.013V22.7188C44.0006 23.8817 43.1523 24.4563 42.222 24.4563C41.4148 24.4563 40.8402 24.0596 40.5529 23.3755C40.3888 22.9514 40.2656 22.281 40.2656 21.3233V10.269H42.9198V20.6119C42.9198 21.2002 42.9198 21.4465 42.9198 21.597C42.9745 21.9937 43.1387 22.1305 43.4944 22.1305C44.0006 22.1305 44.4657 21.6791 45.013 20.8992V10.269H47.6671V24.2511Z" fill="#0F1C32"/>
<path d="M37.5976 24.2514H34.8067V8.16243H31.8652V5.5083H40.6758V8.16243H37.5976V24.2514Z" fill="#0F1C32"/>
</svg>
